<svg id="icons" xmlns="http://www.w3.org/2000/svg" viewBox="0 0 64 64"><title>glass-beer</title><g id="glass-beer"><path d="M47.33,25.16v30A5.79,5.79,0,0,1,41.58,61h-23a4.43,4.43,0,0,1-.9-.08,5.79,5.79,0,0,1-4.85-5.72V25.15a7.47,7.47,0,0,0,2.75,1,7.77,7.77,0,0,0,1.09.08H20.5V37.8a3.84,3.84,0,1,0,7.67,0V26.2H43.5A7.58,7.58,0,0,0,47.33,25.16Z" fill="#ffca72"/><path d="M42.25,25.08v30a5.79,5.79,0,0,1-5.75,5.8H17.68a5.79,5.79,0,0,1-4.85-5.72V26.12H38.42A7.58,7.58,0,0,0,42.25,25.08Z" fill="#f8dd94"/><path d="M51.17,18.47a7.76,7.76,0,0,1-3.84,6.69,7.58,7.58,0,0,1-3.83,1H28.17V37.8a3.84,3.84,0,0,1-7.67.07V26.2H16.67a7.5,7.5,0,0,1-3.84-1.05,7.71,7.71,0,0,1-3.51-4.49A7.53,7.53,0,0,1,9,18.47a7.72,7.72,0,0,1,7.67-7.74,9.63,9.63,0,0,1,2.39.39,11.52,11.52,0,0,1,19.79-4,7.79,7.79,0,0,1,.52.65,11.26,11.26,0,0,1,1.73,3.4,9.79,9.79,0,0,1,2.4-.39,7.6,7.6,0,0,1,5.35,2.2A7.77,7.77,0,0,1,51.17,18.47Z" fill="#dbd2bd"/><path d="M49.17,15.13A8,8,0,0,1,41.5,23H27a2,2,0,0,0-2,2V41s-5-1-5-2V26H15c-1.4,0-2.87-2.33-4-3-.55-.32-1.23-1.9-1.68-2.34A7.53,7.53,0,0,1,9,18.47a7.72,7.72,0,0,1,7.67-7.74,9.63,9.63,0,0,1,2.39.39,11.52,11.52,0,0,1,19.79-4c.09.23.18.47.25.71l.27-.06a11.26,11.26,0,0,1,1.73,3.4,9.79,9.79,0,0,1,2.4-.39,7.6,7.6,0,0,1,5.35,2.2A7.55,7.55,0,0,1,49.17,15.13Z" fill="#faf4e8"/><path d="M47,30h8V42a4,4,0,0,1-4,4H47" fill="none" stroke="#2d3030" stroke-linecap="round" stroke-linejoin="round" stroke-width="2"/><path d="M47,26V55.25A5.7,5.7,0,0,1,41.33,61H18.67A5.7,5.7,0,0,1,13,55.25V26" fill="none" stroke="#2d3030" stroke-linecap="round" stroke-linejoin="round" stroke-width="2"/><path d="M47.33,25.16A7.74,7.74,0,0,0,43.5,10.73a9.79,9.79,0,0,0-2.4.39,11.54,11.54,0,0,0-22,0,9.63,9.63,0,0,0-2.39-.39,7.74,7.74,0,0,0-3.84,14.42,7.5,7.5,0,0,0,3.84,1.05H20.5V37.8a3.84,3.84,0,1,0,7.67,0V26.2H43.5A7.58,7.58,0,0,0,47.33,25.16Z" fill="none" stroke="#2d3030" stroke-linecap="round" stroke-linejoin="round" stroke-width="2"/><line x1="25" y1="47" x2="25" y2="53" fill="none" stroke="#2d3030" stroke-linecap="round" stroke-linejoin="round" stroke-width="2"/><line x1="36" y1="35" x2="36" y2="53" fill="none" stroke="#2d3030" stroke-linecap="round" stroke-linejoin="round" stroke-width="2"/></g></svg>